<svg width="17" height="21" viewBox="0 0 17 21" fill="none" xmlns="http://www.w3.org/2000/svg">
<path d="M14.875 9.08334C14.875 14.0417 8.5 18.2917 8.5 18.2917C8.5 18.2917 2.125 14.0417 2.125 9.08334C2.125 7.39259 2.79665 5.77108 3.99219 4.57554C5.18774 3.37999 6.80924 2.70834 8.5 2.70834C10.1908 2.70834 11.8123 3.37999 13.0078 4.57554C14.2033 5.77108 14.875 7.39259 14.875 9.08334Z" stroke="#999999" stroke-width="1.5" stroke-linecap="round" stroke-linejoin="round"/>
<path d="M8.5 11.2083C9.6736 11.2083 10.625 10.2569 10.625 9.08334C10.625 7.90974 9.6736 6.95834 8.5 6.95834C7.32639 6.95834 6.375 7.90974 6.375 9.08334C6.375 10.2569 7.32639 11.2083 8.5 11.2083Z" stroke="#999999" stroke-width="1.5" stroke-linecap="round" stroke-linejoin="round"/>
</svg>
